HIERARCHY
ROOT Hips
{
	OFFSET -0.001795 -0.223333 0.028219
	CHANNELS 6 Xposition Yposition Zposition Zrotation Yrotation Xrotation 
	JOINT LeftUpLeg
	{
		OFFSET 0.069520 -0.091406 -0.006815
		CHANNELS 3 Zrotation Yrotation Xrotation
		JOINT LeftLeg
		{
			OFFSET 0.034277 -0.375199 -0.004496
			CHANNELS 3 Zrotation Yrotation Xrotation
			JOINT LeftFoot
			{
				OFFSET -0.013596 -0.397961 -0.043693
				CHANNELS 3 Zrotation Yrotation Xrotation
				JOINT LeftToe
				{
					OFFSET 0.026358 -0.055791 0.119288
					CHANNELS 3 Zrotation Yrotation Xrotation
					End Site
					{
						OFFSET 0.000000 0.000000 0.000000
					}
				}
			}
		}
	}
	JOINT RightUpLeg
	{
		OFFSET -0.067670 -0.090522 -0.004320
		CHANNELS 3 Zrotation Yrotation Xrotation
		JOINT RightLeg
		{
			OFFSET -0.038290 -0.382569 -0.008850
			CHANNELS 3 Zrotation Yrotation Xrotation
			JOINT RightFoot
			{
				OFFSET 0.015774 -0.398415 -0.042312
				CHANNELS 3 Zrotation Yrotation Xrotation
				JOINT RightToe
				{
					OFFSET -0.025372 -0.048144 0.123348
					CHANNELS 3 Zrotation Yrotation Xrotation
					End Site
					{
						OFFSET 0.000000 0.000000 0.000000
					}
				}
			}
		}
	}
	JOINT Spine
	{
		OFFSET -0.002533 0.108963 -0.026696
		CHANNELS 3 Zrotation Yrotation Xrotation
		JOINT Spine1
		{
			OFFSET 0.005487 0.135180 0.001092
			CHANNELS 3 Zrotation Yrotation Xrotation
			JOINT Spine2
			{
				OFFSET 0.001457 0.052922 0.025425
				CHANNELS 3 Zrotation Yrotation Xrotation
				JOINT Neck
				{
					OFFSET -0.002778 0.213870 -0.042857
					CHANNELS 3 Zrotation Yrotation Xrotation
					JOINT Head
					{
						OFFSET 0.005152 0.064970 0.051349
						CHANNELS 3 Zrotation Yrotation Xrotation
						End Site
						{
							OFFSET 0.000000 0.000000 0.000000
						}
					}
				}
				JOINT LeftShoulder
				{
					OFFSET 0.078845 0.121749 -0.034090
					CHANNELS 3 Zrotation Yrotation Xrotation
					JOINT LeftArm
					{
						OFFSET 0.090977 0.030469 -0.008868
						CHANNELS 3 Zrotation Yrotation Xrotation
						JOINT LeftForeArm
						{
							OFFSET 0.259612 -0.012772 -0.027456
							CHANNELS 3 Zrotation Yrotation Xrotation
							JOINT LeftHand
							{
								OFFSET 0.249234 0.008986 -0.001171
								CHANNELS 3 Zrotation Yrotation Xrotation
								End Site
								{
									OFFSET 0.000000 0.000000 0.000000
								}
							}
						}
					}
				}
				JOINT RightShoulder
				{
					OFFSET -0.081759 0.118833 -0.038615
					CHANNELS 3 Zrotation Yrotation Xrotation
					JOINT RightArm
					{
						OFFSET -0.096012 0.032551 -0.009143
						CHANNELS 3 Zrotation Yrotation Xrotation
						JOINT RightForeArm
						{
							OFFSET -0.253742 -0.013329 -0.021401
							CHANNELS 3 Zrotation Yrotation Xrotation
							JOINT RightHand
							{
								OFFSET -0.255298 0.007772 -0.005559
								CHANNELS 3 Zrotation Yrotation Xrotation
								End Site
								{
									OFFSET 0.000000 0.000000 0.000000
								}
							}
						}
					}
				}
			}
		}
	}
}
MOTION
Frames: 8
Frame Time: 0.050000
-0.602894 0.952359 0.629133 1.771434 13.170561 2.935648 11.978804 -0.575311 -9.102509 -3.530429 0.098569 9.361052 -13.663317 -7.793962 25.137059 0.000000 0.000000 0.000000 -6.102291 0.448279 -14.339713 4.617832 -0.933010 11.860874 -11.917239 -23.972431 20.479906 0.000000 0.000000 0.000000 3.342655 -4.387502 36.495450 10.406654 -2.606874 -15.891836 8.782910 10.820636 24.873446 8.947827 -1.502233 -22.774325 0.000000 0.000000 0.000000 -26.498791 -14.354723 0.864896 -40.933550 -16.624421 0.426863 -67.466522 -76.358267 55.354780 0.000000 0.000000 0.000000 9.750175 29.246059 15.186504 19.720308 43.809086 3.218885 -26.694907 33.520281 -5.897158 0.000000 0.000000 0.000000 
-0.603121 0.952403 0.629405 1.828902 13.637989 2.910248 11.711463 -0.591278 -9.032994 -3.525555 0.093389 9.214161 -12.909879 -6.880196 24.700309 0.000000 0.000000 0.000000 -6.168144 0.417275 -13.893812 4.667337 -0.938720 11.314094 -12.161469 -24.277362 20.578588 0.000000 0.000000 0.000000 3.274544 -4.353267 36.111508 10.587404 -2.633762 -16.070273 8.652181 10.703939 25.169680 8.618193 -1.296622 -22.650835 0.000000 0.000000 0.000000 -26.696666 -14.220868 0.692296 -40.811259 -16.935496 0.525372 -67.113468 -76.346466 55.013004 0.000000 0.000000 0.000000 10.187910 28.907363 15.228278 21.409736 43.762830 3.683213 -27.241106 36.665234 -6.612752 0.000000 0.000000 0.000000 
-0.603495 0.952847 0.629768 1.873420 14.387490 2.725241 11.419403 -0.610747 -8.822404 -3.538853 0.086825 9.047624 -12.045325 -5.786601 24.187744 0.000000 0.000000 0.000000 -6.250909 0.372282 -13.306471 4.789609 -0.976341 10.901074 -12.534661 -24.705672 20.911280 0.000000 0.000000 0.000000 3.143472 -4.350542 35.852816 10.664423 -2.673435 -15.870066 8.684819 10.493176 25.108688 8.144276 -1.094156 -21.992595 0.000000 0.000000 0.000000 -27.038664 -14.381704 0.677225 -40.512791 -17.399498 0.709788 -64.513061 -76.900899 53.172279 0.000000 0.000000 0.000000 10.179679 28.676179 15.127592 23.673214 43.224598 4.282493 -28.098242 39.743201 -7.418030 0.000000 0.000000 0.000000 
-0.603993 0.952949 0.630028 1.816448 15.080946 2.401748 11.282086 -0.622557 -8.608548 -3.604423 0.078672 9.207712 -11.154636 -4.867571 23.320451 0.000000 0.000000 0.000000 -6.380666 0.322621 -12.773222 5.188007 -1.092108 10.760893 -12.871492 -25.100492 21.167877 0.000000 0.000000 0.000000 2.946681 -4.355956 35.841635 11.089187 -2.792067 -15.977887 8.453210 10.442042 25.084911 7.991313 -1.005317 -21.746872 0.000000 0.000000 0.000000 -26.870277 -14.304135 0.556520 -40.734879 -17.575956 0.776699 -65.049122 -77.119176 53.731032 0.000000 0.000000 0.000000 10.662667 28.226632 15.138029 25.144151 42.671674 4.579158 -28.565218 42.695877 -8.137143 0.000000 0.000000 0.000000 
-0.604562 0.953077 0.630172 1.838246 15.794995 2.180801 11.000565 -0.635341 -8.388452 -3.552816 0.063024 9.058046 -10.375465 -3.885012 22.808479 0.000000 0.000000 0.000000 -6.363109 0.293503 -12.178477 5.201187 -1.099684 10.356665 -13.244086 -25.543639 21.413073 0.000000 0.000000 0.000000 2.875273 -4.361894 35.571654 11.157932 -2.808227 -15.923407 8.343824 10.318765 24.768797 7.816112 -0.931796 -21.377654 0.000000 0.000000 0.000000 -27.219391 -14.397714 0.478631 -40.413633 -17.640657 0.855818 -65.992244 -77.313603 54.702877 0.000000 0.000000 0.000000 11.615777 27.689128 15.309329 26.101822 41.692608 4.543870 -28.870051 45.290767 -8.748055 0.000000 0.000000 0.000000 
-0.605029 0.953169 0.630195 1.916512 16.201379 2.118808 10.773793 -0.642122 -8.257536 -3.453097 0.040635 9.066678 -9.986843 -3.665886 22.053645 0.000000 0.000000 0.000000 -6.528119 0.255924 -11.883298 5.403008 -1.149236 10.099311 -13.445930 -25.782935 21.544308 0.000000 0.000000 0.000000 2.764069 -4.331931 35.370823 11.332571 -2.848640 -16.014905 8.030630 10.229807 24.481548 7.547013 -0.729697 -21.478017 0.000000 0.000000 0.000000 -27.364250 -14.422164 0.431522 -40.198506 -17.278210 0.775728 -68.781997 -77.686172 57.512692 0.000000 0.000000 0.000000 12.212175 27.396158 15.428567 26.118471 40.807338 4.292643 -29.734633 46.970657 -9.458150 0.000000 0.000000 0.000000 
-0.605354 0.953197 0.630168 2.048702 16.519204 2.021928 10.484929 -0.644112 -8.120888 -3.385350 0.026724 9.019173 -9.616394 -3.227883 21.751427 0.000000 0.000000 0.000000 -6.717675 0.216996 -11.565849 5.533275 -1.179874 9.879272 -13.598367 -25.973092 21.603038 0.000000 0.000000 0.000000 2.783465 -4.317837 35.083020 11.318657 -2.844094 -15.959556 7.651647 10.067024 24.134815 7.427691 -0.708787 -21.187087 0.000000 0.000000 0.000000 -27.815939 -14.486433 0.390863 -40.060147 -16.687230 0.657157 -75.617895 -77.597605 63.706028 0.000000 0.000000 0.000000 12.660287 27.067948 15.458147 25.238753 40.414440 3.909809 -30.614171 47.312258 -9.912376 0.000000 0.000000 0.000000 
-0.605587 0.953548 0.630100 2.221243 16.828916 2.038870 10.098289 -0.644231 -7.847092 -3.147142 0.006551 8.523098 -9.452681 -2.985969 21.623127 0.000000 0.000000 0.000000 -6.926539 0.178888 -11.380386 5.608941 -1.198061 9.690118 -13.747160 -26.128490 21.773987 0.000000 0.000000 0.000000 2.822740 -4.330212 34.890158 11.273431 -2.818585 -15.984836 7.325132 9.737113 23.661940 7.086642 -0.518390 -21.203309 0.000000 0.000000 0.000000 -28.196106 -14.495659 0.396769 -40.180765 -16.301642 0.589143 -79.379843 -77.252738 66.948530 0.000000 0.000000 0.000000 12.848368 26.975706 15.466042 23.932640 40.085628 3.470677 -32.035168 46.727015 -10.398090 0.000000 0.000000 0.000000 
